<svg width="120" height="43" viewBox="0 0 120 43" fill="none" xmlns="http://www.w3.org/2000/svg">
<g clip-path="url(#clip0_600_1232)">
<path d="M3.41016 1.34302L116.762 1.54224C118.348 1.54224 119.762 1.30786 119.762 4.7063L119.621 42.0344H0.546875V4.56567C0.546875 2.88989 0.710938 1.34302 3.41016 1.34302Z" fill="#AAB2AB"/>
<path d="M117.754 0.889893H2.24609C1.00781 0.889893 0 1.89771 0 3.13599V42.3821C0 42.6633 0.226563 42.8899 0.507813 42.8899H119.492C119.773 42.8899 120 42.6633 120 42.3821V3.13599C120 1.89771 118.992 0.889893 117.754 0.889893ZM2.24609 1.90552H117.754C118.434 1.90552 118.984 2.4563 118.984 3.13599C118.984 3.13599 118.984 18.9329 118.984 30.3586H36.4297C33.4023 35.8274 27.5703 39.5422 20.8828 39.5422C14.1875 39.5422 8.35938 35.8313 5.33594 30.3586H1.01562C1.01562 18.9329 1.01562 3.13599 1.01562 3.13599C1.01562 2.4563 1.56641 1.90552 2.24609 1.90552Z" fill="black"/>
<path d="M34.5234 20.4407C34.5274 27.9719 28.4258 34.0774 20.8945 34.0813C13.3672 34.0891 7.25782 27.9876 7.25391 20.4563C7.25391 20.4524 7.25391 20.4485 7.25391 20.4407C7.2461 12.9133 13.3477 6.80396 20.8789 6.80005C28.4102 6.79614 34.5195 12.8938 34.5234 20.4251C34.5234 20.429 34.5234 20.4368 34.5234 20.4407Z" fill="white"/>
<path d="M31.9727 9.33521C34.9961 12.3586 36.5078 16.0618 36.5078 20.4407C36.5078 24.8196 35.0195 28.4836 32.0508 31.429C28.8945 34.5305 25.168 36.0813 20.8672 36.0813C16.6172 36.0813 12.957 34.5422 9.88281 31.468C6.80469 28.3938 5.26953 24.718 5.26953 20.4407C5.26953 16.1672 6.80469 12.4641 9.88281 9.33521C12.8789 6.31177 16.5391 4.80005 20.8672 4.80005C25.2461 4.80005 28.9492 6.31177 31.9727 9.33521ZM11.918 11.3704C9.35938 13.9524 8.08203 16.9758 8.08203 20.4446C8.08203 23.9133 9.34766 26.9133 11.875 29.4407C14.4062 31.9719 17.418 33.2336 20.9141 33.2336C24.4102 33.2336 27.4453 31.9563 30.0273 29.4016C32.4805 27.0305 33.707 24.0422 33.707 20.4446C33.707 16.8743 32.4609 13.843 29.9688 11.3508C27.4766 8.86255 24.4609 7.61646 20.9141 7.61646C17.3672 7.61646 14.3672 8.86646 11.918 11.3704ZM18.6445 18.9211C18.2539 18.0696 17.668 17.6438 16.8867 17.6438C15.5117 17.6438 14.8203 18.5696 14.8203 20.425C14.8203 22.2805 15.5117 23.2102 16.8867 23.2102C17.7969 23.2102 18.4492 22.7571 18.8398 21.8508L20.75 22.8704C19.8398 24.4875 18.4727 25.2961 16.6523 25.2961C15.2461 25.2961 14.1211 24.8665 13.2734 24.0032C12.4297 23.1438 12.0039 21.9563 12.0039 20.4407C12.0039 18.9524 12.4414 17.7727 13.3125 16.8977C14.1836 16.0227 15.2734 15.5852 16.5742 15.5852C18.5 15.5852 19.8789 16.343 20.7109 17.8625L18.6445 18.9211ZM27.6328 18.9211C27.2422 18.0696 26.668 17.6438 25.9141 17.6438C24.5078 17.6438 23.8047 18.5696 23.8047 20.425C23.8047 22.2805 24.5078 23.2102 25.9141 23.2102C26.8281 23.2102 27.4648 22.7571 27.8281 21.8508L29.7812 22.8704C28.8711 24.4875 27.5078 25.2961 25.6914 25.2961C24.2852 25.2961 23.1641 24.8665 22.3164 24.0032C21.4766 23.1438 21.0508 21.9563 21.0508 20.4407C21.0508 18.9524 21.4805 17.7727 22.3398 16.8977C23.1953 16.0227 24.2852 15.5852 25.6133 15.5852C27.5352 15.5852 28.9102 16.343 29.7422 17.8625L27.6328 18.9211Z" fill="black"/>
<path d="M62.5039 16.1125C62.5039 22.0422 57.6953 26.8508 51.7617 26.8508C45.832 26.8508 41.0234 22.0422 41.0234 16.1125C41.0234 10.1829 45.832 5.37427 51.7617 5.37427C57.6953 5.37427 62.5039 10.1829 62.5039 16.1125Z" fill="white"/>
<path d="M54.8711 13.0071C54.8711 12.593 54.5352 12.2571 54.1211 12.2571H49.3789C48.9648 12.2571 48.6289 12.593 48.6289 13.0071V17.7493H49.9531V23.3665H53.5469V17.7493H54.8711V13.0071Z" fill="black"/>
<path d="M53.3711 10.011C53.3711 10.9055 52.6484 11.6321 51.75 11.6321C50.8555 11.6321 50.1289 10.9055 50.1289 10.011C50.1289 9.11646 50.8555 8.38989 51.75 8.38989C52.6484 8.38989 53.3711 9.11646 53.3711 10.011Z" fill="black"/>
<path fill-rule="evenodd" clip-rule="evenodd" d="M51.7344 4.28052C48.5234 4.28052 45.8047 5.40161 43.5781 7.6438C41.2969 9.96411 40.1562 12.7063 40.1562 15.8782C40.1562 19.0461 41.2969 21.7727 43.5781 24.05C45.8633 26.3313 48.582 27.4719 51.7344 27.4719C54.9297 27.4719 57.6953 26.3235 60.0391 24.0227C62.2461 21.8391 63.3477 19.1243 63.3477 15.8782C63.3477 12.6282 62.2266 9.88599 59.9805 7.6438C57.7344 5.40161 54.9883 4.28052 51.7344 4.28052ZM51.7656 6.37036C54.3984 6.37036 56.6328 7.29614 58.4688 9.15161C60.3281 10.9875 61.2578 13.2297 61.2578 15.8782C61.2578 18.5422 60.3477 20.7571 58.5273 22.5149C56.6133 24.4094 54.3594 25.3547 51.7656 25.3547C49.1719 25.3547 46.9375 24.4172 45.0586 22.5422C43.1836 20.6711 42.2461 18.4485 42.2461 15.8782C42.2461 13.3079 43.1914 11.0657 45.0898 9.15161C46.9102 7.29614 49.1328 6.37036 51.7656 6.37036Z" fill="black"/>
<path d="M48.4023 33.636C48.7148 33.636 49.0039 33.6672 49.2656 33.7219C49.5234 33.7766 49.75 33.8665 49.9336 33.9954C50.1211 34.1204 50.2617 34.2883 50.3672 34.4993C50.4687 34.7102 50.5195 34.968 50.5195 35.2766C50.5195 35.6125 50.4453 35.8899 50.293 36.1125C50.1406 36.3352 49.9141 36.5149 49.6172 36.6594C50.0273 36.7766 50.332 36.9836 50.5352 37.2766C50.7383 37.5696 50.8398 37.925 50.8398 38.3391C50.8398 38.6711 50.7734 38.9602 50.6445 39.2063C50.5117 39.4485 50.3359 39.6516 50.1172 39.804C49.8984 39.9602 49.6445 40.0735 49.3633 40.1477C49.082 40.2219 48.793 40.261 48.4961 40.261H45.2773V33.636H48.4023ZM48.2148 36.3157C48.4766 36.3157 48.6875 36.2532 48.8555 36.1321C49.0234 36.0071 49.1055 35.8079 49.1055 35.5305C49.1055 35.3743 49.0781 35.2493 49.0234 35.1516C48.9687 35.05 48.8945 34.9758 48.8008 34.9172C48.707 34.8625 48.6016 34.8235 48.4805 34.804C48.3594 34.7805 48.2344 34.7688 48.1016 34.7688H46.7383V36.3157H48.2148ZM48.3008 39.1243C48.4414 39.1243 48.5781 39.1125 48.707 39.0852C48.8398 39.0579 48.9531 39.011 49.0547 38.9446C49.1523 38.8821 49.2305 38.7922 49.2891 38.679C49.3477 38.5696 49.3789 38.429 49.3789 38.2532C49.3789 37.9133 49.2812 37.6711 49.0898 37.5266C48.8984 37.3821 48.6445 37.3079 48.3281 37.3079H46.7383V39.1243H48.3008Z" fill="white"/>
<path d="M51.0938 33.636H52.7266L54.2773 36.2532L55.8203 33.636H57.4453L54.9844 37.718V40.261H53.5234V37.679L51.0938 33.636Z" fill="white"/>
<path d="M98.4416 38.6204C98.5197 38.7766 98.6251 38.9016 98.7619 38.9993C98.8947 39.093 99.047 39.1633 99.2267 39.2102C99.4064 39.2571 99.59 39.2805 99.7814 39.2805C99.9103 39.2805 100.051 39.2688 100.199 39.2493C100.348 39.2258 100.485 39.1868 100.617 39.1243C100.746 39.0618 100.852 38.9758 100.942 38.8665C101.024 38.761 101.07 38.6204 101.07 38.4563C101.07 38.2766 101.012 38.1321 100.899 38.0188C100.785 37.9094 100.633 37.8157 100.449 37.7415C100.262 37.6672 100.051 37.6008 99.8205 37.5461C99.5822 37.4915 99.3478 37.429 99.1056 37.3625C98.8595 37.3 98.6173 37.2219 98.383 37.1321C98.1486 37.0461 97.9376 36.929 97.7541 36.7844C97.5666 36.6438 97.4181 36.4641 97.3048 36.2532C97.1916 36.0383 97.133 35.7805 97.133 35.4797C97.133 35.136 97.2072 34.843 97.3517 34.593C97.4962 34.343 97.6837 34.1321 97.9181 33.9641C98.1525 33.8 98.422 33.675 98.7189 33.593C99.0119 33.5149 99.3087 33.4758 99.6056 33.4758C99.9533 33.4758 100.285 33.5149 100.602 33.5891C100.922 33.6672 101.203 33.7922 101.449 33.968C101.699 34.1399 101.895 34.3625 102.039 34.6282C102.184 34.9016 102.258 35.2258 102.258 35.6086H100.844C100.832 35.4094 100.789 35.2454 100.719 35.1165C100.649 34.9875 100.555 34.886 100.438 34.8118C100.32 34.7375 100.188 34.6829 100.035 34.6555C99.8869 34.6243 99.7189 34.6086 99.5431 34.6086C99.4259 34.6086 99.3087 34.6204 99.1916 34.6438C99.0744 34.6711 98.9689 34.7141 98.8751 34.7727C98.7775 34.8352 98.6994 34.9133 98.6369 35.0071C98.5783 35.1008 98.547 35.218 98.547 35.3586C98.547 35.4875 98.5705 35.593 98.6173 35.675C98.6681 35.7532 98.7658 35.8313 98.9103 35.8977C99.0587 35.9641 99.258 36.0344 99.5119 36.1008C99.7697 36.1672 100.106 36.2571 100.52 36.3625C100.641 36.386 100.813 36.4329 101.031 36.4954C101.25 36.5618 101.469 36.6633 101.684 36.8079C101.902 36.9485 102.086 37.1399 102.246 37.3782C102.402 37.6165 102.481 37.9211 102.481 38.2922C102.481 38.593 102.422 38.8743 102.305 39.136C102.188 39.3938 102.012 39.6204 101.781 39.8079C101.551 39.9954 101.262 40.1438 100.918 40.2493C100.574 40.3547 100.18 40.4055 99.7267 40.4055C99.3634 40.4055 99.008 40.3625 98.6642 40.2727C98.3205 40.1829 98.0197 40.0422 97.758 39.8469C97.4923 39.6555 97.2853 39.4094 97.1291 39.1125C96.9767 38.8157 96.9025 38.4641 96.9064 38.0579H98.3205C98.3205 38.2805 98.3595 38.468 98.4416 38.6204Z" fill="white"/>
<path d="M106.645 33.636L109.121 40.261H107.609L107.109 38.7844H104.633L104.113 40.261H102.648L105.152 33.636H106.645ZM106.73 37.6985L105.895 35.2688H105.875L105.016 37.6985H106.73Z" fill="white"/>
<path d="M72.5195 33.636L75.2852 38.0813H75.3008V33.636H76.668V40.261H75.2109L72.4531 35.8274H72.4336V40.261H71.0703V33.636H72.5195Z" fill="white"/>
<path d="M82.1953 35.4016C82.1094 35.261 82 35.1399 81.8711 35.0344C81.7422 34.929 81.5937 34.8469 81.4297 34.7883C81.2656 34.7297 81.0937 34.7024 80.9141 34.7024C80.5859 34.7024 80.3086 34.7649 80.0781 34.8899C79.8516 35.0188 79.6641 35.1868 79.5234 35.4016C79.3828 35.6125 79.2773 35.8547 79.2109 36.1282C79.1484 36.4016 79.1133 36.6829 79.1133 36.9719C79.1133 37.2493 79.1484 37.5227 79.2109 37.7844C79.2773 38.0461 79.3828 38.2844 79.5234 38.4915C79.6641 38.7024 79.8516 38.8704 80.0781 38.9993C80.3086 39.1243 80.5859 39.1868 80.9141 39.1868C81.3594 39.1868 81.707 39.054 81.957 38.7805C82.2109 38.5071 82.3633 38.1477 82.418 37.7024H83.8281C83.793 38.1165 83.6953 38.4915 83.5391 38.8274C83.3867 39.1594 83.1797 39.4446 82.9297 39.679C82.6758 39.9172 82.3789 40.0969 82.0391 40.2219C81.6992 40.343 81.3242 40.4055 80.9141 40.4055C80.4062 40.4055 79.9531 40.3196 79.5469 40.1399C79.1406 39.968 78.8008 39.7219 78.5195 39.4133C78.2422 39.1047 78.0273 38.7415 77.8789 38.3235C77.7305 37.9055 77.6562 37.4563 77.6562 36.9719C77.6562 36.4758 77.7305 36.0188 77.8789 35.593C78.0273 35.1711 78.2422 34.8 78.5195 34.4836C78.8008 34.1711 79.1406 33.9211 79.5469 33.7415C79.9531 33.5618 80.4062 33.4758 80.9141 33.4758C81.2812 33.4758 81.625 33.5266 81.9492 33.6321C82.2734 33.7375 82.5664 33.8899 82.8203 34.093C83.0781 34.2922 83.2891 34.5422 83.457 34.8391C83.625 35.136 83.7305 35.4758 83.7734 35.8586H82.3633C82.3359 35.6946 82.2812 35.5383 82.1953 35.4016Z" fill="white"/>
<path d="M114.578 15.8704C114.586 21.7141 109.848 26.4563 104.004 26.4641C98.1563 26.4641 93.4141 21.7337 93.4102 15.886C93.4102 15.8821 93.4102 15.8743 93.4102 15.8704C93.4063 10.0266 98.1406 5.28443 103.988 5.28053C109.832 5.27272 114.574 10.011 114.578 15.8547C114.578 15.8587 114.578 15.8665 114.578 15.8704Z" fill="white"/>
<path d="M103.918 4.27661C100.707 4.27661 97.9883 5.39771 95.7617 7.63599C93.4805 9.9563 92.3359 12.7024 92.3359 15.8704C92.3359 19.0383 93.4805 21.7649 95.7617 24.0461C98.0469 26.3274 100.766 27.4641 103.918 27.4641C107.113 27.4641 109.879 26.3157 112.219 24.0149C114.426 21.8313 115.531 19.1165 115.531 15.8704C115.531 12.6243 114.406 9.87817 112.164 7.63599C109.918 5.39771 107.172 4.27661 103.918 4.27661ZM103.949 6.36255C106.578 6.36255 108.812 7.28833 110.652 9.14771C112.512 10.9797 113.438 13.2219 113.438 15.8704C113.438 18.5383 112.531 20.7493 110.711 22.511C108.797 24.4016 106.539 25.3508 103.949 25.3508C101.355 25.3508 99.1211 24.4133 97.2422 22.5383C95.3672 20.6633 94.4258 18.4407 94.4258 15.8704C94.4258 13.3 95.375 11.0579 97.2734 9.14771C99.0898 7.28833 101.316 6.36255 103.949 6.36255Z" fill="black"/>
<path d="M98.7773 14.2336C99.2422 11.3157 101.293 9.75708 103.871 9.75708C107.57 9.75708 109.828 12.4446 109.828 16.0266C109.828 19.5188 107.426 22.2336 103.812 22.2336C101.324 22.2336 99.0977 20.7063 98.6914 17.6985H101.613C101.699 19.261 102.711 19.8079 104.16 19.8079C105.805 19.8079 106.879 18.2766 106.879 15.9368C106.879 13.4836 105.953 12.1829 104.215 12.1829C102.945 12.1829 101.844 12.6477 101.613 14.2336L102.461 14.2297L100.164 16.5266L97.8633 14.2297L98.7773 14.2336Z" fill="black"/>
<path d="M88.6289 15.8704C88.6328 21.8274 83.8086 26.6594 77.8516 26.6633C71.8945 26.6672 67.0586 21.843 67.0547 15.886C67.0547 15.8821 67.0547 15.8743 67.0547 15.8704C67.0508 9.91333 71.8789 5.0813 77.8359 5.07739C83.793 5.07349 88.625 9.89771 88.6289 15.8547C88.6289 15.8586 88.6289 15.8665 88.6289 15.8704Z" fill="white"/>
<path d="M77.8281 4.27661C81.0781 4.27661 83.8242 5.39771 86.0703 7.63599C88.3164 9.87817 89.4375 12.6243 89.4375 15.8704C89.4375 19.1165 88.3359 21.8313 86.1289 24.0149C83.7891 26.3157 81.0195 27.4641 77.8281 27.4641C74.6719 27.4641 71.9531 26.3274 69.6719 24.0461C67.3867 21.7649 66.2461 19.0383 66.2461 15.8704C66.2461 12.7024 67.3867 9.9563 69.6719 7.63599C71.8984 5.39771 74.6133 4.27661 77.8281 4.27661ZM68.8555 12.7571C68.5078 13.7336 68.3359 14.7727 68.3359 15.8704C68.3359 18.4407 69.2734 20.6633 71.1523 22.5383C73.0273 24.4133 75.2617 25.3508 77.8555 25.3508C80.4492 25.3508 82.7031 24.4016 84.6211 22.5071C85.2617 21.8899 85.7891 21.2141 86.2031 20.4797L81.832 18.5344C81.5352 20.0032 80.2266 20.9993 78.6406 21.1165V22.9016H77.3086V21.1165C76.0078 21.1008 74.75 20.5657 73.7891 19.7258L75.3867 18.1165C76.1562 18.8391 76.9258 19.1633 77.9766 19.1633C78.6562 19.1633 79.4102 18.8977 79.4102 18.011C79.4102 17.6985 79.2891 17.4797 79.0977 17.3157L77.9922 16.8235L76.6133 16.2102C75.9336 15.9055 75.3555 15.6516 74.7773 15.3938L68.8555 12.7571ZM77.8555 6.36255C75.2227 6.36255 73 7.28833 71.1797 9.14771C70.6836 9.6438 70.2539 10.1672 69.8906 10.7102L74.3203 12.6868C74.7227 11.4563 75.8906 10.7102 77.3086 10.6282V8.83911H78.6406V10.6282C79.5586 10.6711 80.5625 10.9211 81.5547 11.6907L80.0312 13.2571C79.4688 12.8586 78.7578 12.5774 78.0469 12.5774C77.4727 12.5774 76.6602 12.7532 76.6602 13.4758C76.6602 13.5891 76.6953 13.6868 76.7617 13.7727L78.2461 14.4329L79.25 14.8782C79.8906 15.1633 80.5039 15.4368 81.1133 15.7063L87.0547 18.3547C87.25 17.5735 87.3477 16.7454 87.3477 15.8704C87.3477 13.2219 86.418 10.9797 84.5625 9.14771C82.7227 7.28833 80.4883 6.36255 77.8555 6.36255Z" fill="black"/>
</g>
<defs>
<clipPath id="clip0_600_1232">
<rect width="120" height="42" fill="white" transform="translate(0 0.889893)"/>
</clipPath>
</defs>
</svg>
